<mxfile host="app.diagrams.net" agent="Mozilla/5.0 (Windows NT 10.0; Win64; x64) AppleWebKit/537.36 (KHTML, like Gecko) Chrome/136.0.0.0 Safari/537.36 Edg/136.0.0.0" version="27.0.8">
  <diagram name="Page-1" id="vlZzpyD3wtAgBcxXlKSZ">
    <mxGraphModel dx="4606" dy="2414" grid="1" gridSize="10" guides="1" tooltips="1" connect="1" arrows="1" fold="1" page="1" pageScale="1" pageWidth="850" pageHeight="1100" math="0" shadow="0">
      <root>
        <mxCell id="0" />
        <mxCell id="1" parent="0" />
        <mxCell id="FqRL_8TPMi-P5fQyOlki-1" value="&lt;strong style=&quot;color: rgb(64, 64, 64); font-family: DeepSeek-CJK-patch, Inter, system-ui, -apple-system, BlinkMacSystemFont, &amp;quot;Segoe UI&amp;quot;, Roboto, &amp;quot;Noto Sans&amp;quot;, Ubuntu, Cantarell, &amp;quot;Helvetica Neue&amp;quot;, Oxygen, &amp;quot;Open Sans&amp;quot;, sans-serif; text-align: left; background-color: rgb(255, 255, 255);&quot;&gt;&lt;font style=&quot;font-size: 36px;&quot;&gt;Airline&lt;/font&gt;&lt;/strong&gt;" style="rounded=0;whiteSpace=wrap;html=1;" vertex="1" parent="1">
          <mxGeometry x="-80" y="-30" width="120" height="60" as="geometry" />
        </mxCell>
        <mxCell id="FqRL_8TPMi-P5fQyOlki-2" value="&lt;strong style=&quot;color: rgb(64, 64, 64); font-family: DeepSeek-CJK-patch, Inter, system-ui, -apple-system, BlinkMacSystemFont, &amp;quot;Segoe UI&amp;quot;, Roboto, &amp;quot;Noto Sans&amp;quot;, Ubuntu, Cantarell, &amp;quot;Helvetica Neue&amp;quot;, Oxygen, &amp;quot;Open Sans&amp;quot;, sans-serif; text-align: left; background-color: rgb(255, 255, 255);&quot;&gt;&lt;font style=&quot;font-size: 36px;&quot;&gt;Flight&lt;/font&gt;&lt;/strong&gt;" style="rounded=0;whiteSpace=wrap;html=1;" vertex="1" parent="1">
          <mxGeometry x="470" y="290" width="120" height="60" as="geometry" />
        </mxCell>
        <mxCell id="FqRL_8TPMi-P5fQyOlki-3" value="&lt;strong style=&quot;color: rgb(64, 64, 64); font-family: DeepSeek-CJK-patch, Inter, system-ui, -apple-system, BlinkMacSystemFont, &amp;quot;Segoe UI&amp;quot;, Roboto, &amp;quot;Noto Sans&amp;quot;, Ubuntu, Cantarell, &amp;quot;Helvetica Neue&amp;quot;, Oxygen, &amp;quot;Open Sans&amp;quot;, sans-serif; text-align: left; background-color: rgb(255, 255, 255);&quot;&gt;&lt;font style=&quot;font-size: 24px;&quot;&gt;Employee&lt;/font&gt;&lt;/strong&gt;" style="rounded=0;whiteSpace=wrap;html=1;" vertex="1" parent="1">
          <mxGeometry x="-80" y="300" width="120" height="60" as="geometry" />
        </mxCell>
        <mxCell id="FqRL_8TPMi-P5fQyOlki-4" value="&lt;strong style=&quot;color: rgb(64, 64, 64); font-family: DeepSeek-CJK-patch, Inter, system-ui, -apple-system, BlinkMacSystemFont, &amp;quot;Segoe UI&amp;quot;, Roboto, &amp;quot;Noto Sans&amp;quot;, Ubuntu, Cantarell, &amp;quot;Helvetica Neue&amp;quot;, Oxygen, &amp;quot;Open Sans&amp;quot;, sans-serif; text-align: left; background-color: rgb(255, 255, 255);&quot;&gt;&lt;font style=&quot;font-size: 24px;&quot;&gt;Route&lt;/font&gt;&lt;/strong&gt;" style="rounded=0;whiteSpace=wrap;html=1;" vertex="1" parent="1">
          <mxGeometry x="460" y="-30" width="120" height="60" as="geometry" />
        </mxCell>
        <mxCell id="FqRL_8TPMi-P5fQyOlki-5" value="&lt;strong style=&quot;color: rgb(64, 64, 64); font-family: DeepSeek-CJK-patch, Inter, system-ui, -apple-system, BlinkMacSystemFont, &amp;quot;Segoe UI&amp;quot;, Roboto, &amp;quot;Noto Sans&amp;quot;, Ubuntu, Cantarell, &amp;quot;Helvetica Neue&amp;quot;, Oxygen, &amp;quot;Open Sans&amp;quot;, sans-serif; text-align: left; background-color: rgb(255, 255, 255);&quot;&gt;&lt;font style=&quot;font-size: 24px;&quot;&gt;Aircraft&lt;/font&gt;&lt;/strong&gt;" style="rounded=0;whiteSpace=wrap;html=1;" vertex="1" parent="1">
          <mxGeometry x="-90" y="600" width="120" height="60" as="geometry" />
        </mxCell>
        <mxCell id="FqRL_8TPMi-P5fQyOlki-7" value="&lt;strong style=&quot;color: rgb(64, 64, 64); font-family: DeepSeek-CJK-patch, Inter, system-ui, -apple-system, BlinkMacSystemFont, &amp;quot;Segoe UI&amp;quot;, Roboto, &amp;quot;Noto Sans&amp;quot;, Ubuntu, Cantarell, &amp;quot;Helvetica Neue&amp;quot;, Oxygen, &amp;quot;Open Sans&amp;quot;, sans-serif; text-align: left; background-color: rgb(255, 255, 255);&quot;&gt;&lt;font style=&quot;font-size: 36px;&quot;&gt;Crew&lt;/font&gt;&lt;/strong&gt;" style="rounded=0;whiteSpace=wrap;html=1;" vertex="1" parent="1">
          <mxGeometry x="480" y="610" width="120" height="60" as="geometry" />
        </mxCell>
        <mxCell id="FqRL_8TPMi-P5fQyOlki-8" style="edgeStyle=orthogonalEdgeStyle;rounded=0;orthogonalLoop=1;jettySize=auto;html=1;exitX=0.5;exitY=1;exitDx=0;exitDy=0;" edge="1" parent="1" source="FqRL_8TPMi-P5fQyOlki-5" target="FqRL_8TPMi-P5fQyOlki-5">
          <mxGeometry relative="1" as="geometry" />
        </mxCell>
        <mxCell id="FqRL_8TPMi-P5fQyOlki-9" value="&lt;strong style=&quot;color: rgb(64, 64, 64); font-family: DeepSeek-CJK-patch, Inter, system-ui, -apple-system, BlinkMacSystemFont, &amp;quot;Segoe UI&amp;quot;, Roboto, &amp;quot;Noto Sans&amp;quot;, Ubuntu, Cantarell, &amp;quot;Helvetica Neue&amp;quot;, Oxygen, &amp;quot;Open Sans&amp;quot;, sans-serif; text-align: left; background-color: rgb(255, 255, 255);&quot;&gt;&lt;font style=&quot;font-size: 24px;&quot;&gt;Transaction&lt;/font&gt;&lt;/strong&gt;" style="rounded=0;whiteSpace=wrap;html=1;" vertex="1" parent="1">
          <mxGeometry x="-790" y="-35" width="140" height="70" as="geometry" />
        </mxCell>
        <mxCell id="FqRL_8TPMi-P5fQyOlki-10" value="&lt;span style=&quot;color: rgb(64, 64, 64); font-family: DeepSeek-CJK-patch, Inter, system-ui, -apple-system, BlinkMacSystemFont, &amp;quot;Segoe UI&amp;quot;, Roboto, &amp;quot;Noto Sans&amp;quot;, Ubuntu, Cantarell, &amp;quot;Helvetica Neue&amp;quot;, Oxygen, &amp;quot;Open Sans&amp;quot;, sans-serif; text-align: left; background-color: rgb(255, 255, 255);&quot;&gt;&lt;u style=&quot;&quot;&gt;&lt;font style=&quot;font-size: 24px;&quot;&gt;Airline_id&lt;/font&gt;&lt;/u&gt;&lt;span style=&quot;font-size: 16.002px;&quot;&gt;&amp;nbsp;&lt;/span&gt;&lt;/span&gt;" style="ellipse;whiteSpace=wrap;html=1;" vertex="1" parent="1">
          <mxGeometry x="-130" y="-250" width="120" height="80" as="geometry" />
        </mxCell>
        <mxCell id="FqRL_8TPMi-P5fQyOlki-11" value="&lt;font style=&quot;font-size: 14px;&quot;&gt;contact person&lt;/font&gt;" style="ellipse;whiteSpace=wrap;html=1;" vertex="1" parent="1">
          <mxGeometry x="-250" y="-210" width="120" height="80" as="geometry" />
        </mxCell>
        <mxCell id="FqRL_8TPMi-P5fQyOlki-12" value="&lt;font style=&quot;font-size: 24px;&quot;&gt;origin&lt;/font&gt;&amp;nbsp;" style="ellipse;whiteSpace=wrap;html=1;" vertex="1" parent="1">
          <mxGeometry x="380" y="-300" width="120" height="80" as="geometry" />
        </mxCell>
        <mxCell id="FqRL_8TPMi-P5fQyOlki-13" value="&lt;font style=&quot;font-size: 18px;&quot;&gt;&lt;u&gt;Route ID&amp;nbsp;&lt;/u&gt;&lt;/font&gt;" style="ellipse;whiteSpace=wrap;html=1;" vertex="1" parent="1">
          <mxGeometry x="270" y="-240" width="120" height="80" as="geometry" />
        </mxCell>
        <mxCell id="FqRL_8TPMi-P5fQyOlki-14" value="&lt;font style=&quot;font-size: 24px;&quot;&gt;perse per passenger&lt;/font&gt;" style="ellipse;whiteSpace=wrap;html=1;" vertex="1" parent="1">
          <mxGeometry x="730" y="290" width="130" height="100" as="geometry" />
        </mxCell>
        <mxCell id="FqRL_8TPMi-P5fQyOlki-15" value="&lt;font style=&quot;font-size: 24px;&quot;&gt;Employe&lt;/font&gt;&lt;div&gt;&lt;font style=&quot;font-size: 24px;&quot;&gt;&amp;nbsp;ID&lt;/font&gt;&lt;/div&gt;" style="ellipse;whiteSpace=wrap;html=1;" vertex="1" parent="1">
          <mxGeometry x="-255" y="100" width="130" height="80" as="geometry" />
        </mxCell>
        <mxCell id="FqRL_8TPMi-P5fQyOlki-16" value="" style="ellipse;whiteSpace=wrap;html=1;" vertex="1" parent="1">
          <mxGeometry x="-500" y="370" width="150" height="100" as="geometry" />
        </mxCell>
        <mxCell id="FqRL_8TPMi-P5fQyOlki-17" value="&lt;font style=&quot;font-size: 36px;&quot;&gt;Name&lt;/font&gt;" style="ellipse;whiteSpace=wrap;html=1;" vertex="1" parent="1">
          <mxGeometry x="-380" y="310" width="120" height="80" as="geometry" />
        </mxCell>
        <mxCell id="FqRL_8TPMi-P5fQyOlki-18" value="&lt;font style=&quot;font-size: 24px;&quot;&gt;Gender&lt;/font&gt;" style="ellipse;whiteSpace=wrap;html=1;" vertex="1" parent="1">
          <mxGeometry x="-310" y="390" width="120" height="80" as="geometry" />
        </mxCell>
        <mxCell id="FqRL_8TPMi-P5fQyOlki-19" value="&lt;font style=&quot;font-size: 24px;&quot;&gt;passenger count&lt;/font&gt;" style="ellipse;whiteSpace=wrap;html=1;" vertex="1" parent="1">
          <mxGeometry x="300" y="190" width="120" height="80" as="geometry" />
        </mxCell>
        <mxCell id="FqRL_8TPMi-P5fQyOlki-20" value="&lt;font style=&quot;font-size: 24px;&quot;&gt;&lt;u&gt;flight_id&lt;/u&gt;&lt;/font&gt;" style="ellipse;whiteSpace=wrap;html=1;" vertex="1" parent="1">
          <mxGeometry x="640" y="120" width="120" height="80" as="geometry" />
        </mxCell>
        <mxCell id="FqRL_8TPMi-P5fQyOlki-21" value="&lt;font style=&quot;font-size: 24px;&quot;&gt;capacite&lt;/font&gt;" style="ellipse;whiteSpace=wrap;html=1;" vertex="1" parent="1">
          <mxGeometry x="-190" y="760" width="120" height="80" as="geometry" />
        </mxCell>
        <mxCell id="FqRL_8TPMi-P5fQyOlki-22" value="&lt;font style=&quot;font-size: 24px;&quot;&gt;&lt;u&gt;Aircraft ID&lt;/u&gt;&lt;/font&gt;" style="ellipse;whiteSpace=wrap;html=1;" vertex="1" parent="1">
          <mxGeometry x="-320" y="610" width="120" height="80" as="geometry" />
        </mxCell>
        <mxCell id="FqRL_8TPMi-P5fQyOlki-23" value="&lt;font style=&quot;font-size: 24px;&quot;&gt;Model&lt;/font&gt;" style="ellipse;whiteSpace=wrap;html=1;" vertex="1" parent="1">
          <mxGeometry x="-290" y="700" width="120" height="80" as="geometry" />
        </mxCell>
        <mxCell id="FqRL_8TPMi-P5fQyOlki-24" value="&lt;span style=&quot;color: rgb(64, 64, 64); font-family: DeepSeek-CJK-patch, Inter, system-ui, -apple-system, BlinkMacSystemFont, &amp;quot;Segoe UI&amp;quot;, Roboto, &amp;quot;Noto Sans&amp;quot;, Ubuntu, Cantarell, &amp;quot;Helvetica Neue&amp;quot;, Oxygen, &amp;quot;Open Sans&amp;quot;, sans-serif; text-align: left; background-color: rgb(255, 255, 255);&quot;&gt;&lt;font style=&quot;font-size: 24px;&quot;&gt;Assistant ploit name&lt;/font&gt;&lt;/span&gt;" style="ellipse;whiteSpace=wrap;html=1;" vertex="1" parent="1">
          <mxGeometry x="660" y="730" width="140" height="100" as="geometry" />
        </mxCell>
        <mxCell id="FqRL_8TPMi-P5fQyOlki-25" value="&lt;font style=&quot;font-size: 24px;&quot;&gt;crew ID&lt;/font&gt;" style="ellipse;whiteSpace=wrap;html=1;" vertex="1" parent="1">
          <mxGeometry x="400" y="760" width="120" height="80" as="geometry" />
        </mxCell>
        <mxCell id="FqRL_8TPMi-P5fQyOlki-26" value="&lt;font style=&quot;font-size: 24px;&quot;&gt;major poilt name&lt;/font&gt;" style="ellipse;whiteSpace=wrap;html=1;" vertex="1" parent="1">
          <mxGeometry x="530" y="790" width="140" height="90" as="geometry" />
        </mxCell>
        <mxCell id="FqRL_8TPMi-P5fQyOlki-27" value="&lt;font style=&quot;font-size: 24px;&quot;&gt;Treavel&lt;/font&gt;&lt;div&gt;&lt;font size=&quot;3&quot;&gt;&amp;nbsp;eduration&lt;/font&gt;&lt;/div&gt;" style="ellipse;whiteSpace=wrap;html=1;" vertex="1" parent="1">
          <mxGeometry x="720" y="190" width="120" height="80" as="geometry" />
        </mxCell>
        <mxCell id="FqRL_8TPMi-P5fQyOlki-29" value="&lt;font style=&quot;font-size: 24px;&quot;&gt;Name&lt;/font&gt;" style="ellipse;whiteSpace=wrap;html=1;" vertex="1" parent="1">
          <mxGeometry x="-10" y="-280" width="120" height="80" as="geometry" />
        </mxCell>
        <mxCell id="FqRL_8TPMi-P5fQyOlki-30" value="" style="ellipse;whiteSpace=wrap;html=1;" vertex="1" parent="1">
          <mxGeometry x="50" y="-200" width="140" height="90" as="geometry" />
        </mxCell>
        <mxCell id="FqRL_8TPMi-P5fQyOlki-31" value="" style="ellipse;whiteSpace=wrap;html=1;" vertex="1" parent="1">
          <mxGeometry x="-340" y="-140" width="140" height="100" as="geometry" />
        </mxCell>
        <mxCell id="FqRL_8TPMi-P5fQyOlki-32" value="" style="endArrow=none;html=1;rounded=0;entryX=0.5;entryY=1;entryDx=0;entryDy=0;exitX=0.25;exitY=0;exitDx=0;exitDy=0;" edge="1" parent="1" source="FqRL_8TPMi-P5fQyOlki-1" target="FqRL_8TPMi-P5fQyOlki-10">
          <mxGeometry width="50" height="50" relative="1" as="geometry">
            <mxPoint x="490" y="50" as="sourcePoint" />
            <mxPoint x="540" as="targetPoint" />
          </mxGeometry>
        </mxCell>
        <mxCell id="FqRL_8TPMi-P5fQyOlki-33" value="" style="endArrow=none;html=1;rounded=0;entryX=0.5;entryY=1;entryDx=0;entryDy=0;exitX=0.25;exitY=0;exitDx=0;exitDy=0;" edge="1" parent="1" source="FqRL_8TPMi-P5fQyOlki-1" target="FqRL_8TPMi-P5fQyOlki-29">
          <mxGeometry width="50" height="50" relative="1" as="geometry">
            <mxPoint x="-50" y="10" as="sourcePoint" />
            <mxPoint x="-70" y="-130" as="targetPoint" />
          </mxGeometry>
        </mxCell>
        <mxCell id="FqRL_8TPMi-P5fQyOlki-34" value="" style="endArrow=none;html=1;rounded=0;entryX=0.5;entryY=1;entryDx=0;entryDy=0;exitX=0.5;exitY=0;exitDx=0;exitDy=0;" edge="1" parent="1" source="FqRL_8TPMi-P5fQyOlki-4" target="FqRL_8TPMi-P5fQyOlki-12">
          <mxGeometry width="50" height="50" relative="1" as="geometry">
            <mxPoint x="460" y="-40" as="sourcePoint" />
            <mxPoint x="-70" y="-110" as="targetPoint" />
          </mxGeometry>
        </mxCell>
        <mxCell id="FqRL_8TPMi-P5fQyOlki-35" value="" style="endArrow=none;html=1;rounded=0;entryX=0.5;entryY=1;entryDx=0;entryDy=0;exitX=0.5;exitY=0;exitDx=0;exitDy=0;" edge="1" parent="1" source="FqRL_8TPMi-P5fQyOlki-4" target="FqRL_8TPMi-P5fQyOlki-13">
          <mxGeometry width="50" height="50" relative="1" as="geometry">
            <mxPoint x="-50" y="30" as="sourcePoint" />
            <mxPoint x="-70" y="-110" as="targetPoint" />
          </mxGeometry>
        </mxCell>
        <mxCell id="FqRL_8TPMi-P5fQyOlki-36" value="" style="endArrow=none;html=1;rounded=0;entryX=0.5;entryY=1;entryDx=0;entryDy=0;" edge="1" parent="1" target="FqRL_8TPMi-P5fQyOlki-30">
          <mxGeometry width="50" height="50" relative="1" as="geometry">
            <mxPoint x="-50" y="-30" as="sourcePoint" />
            <mxPoint x="-70" y="-110" as="targetPoint" />
          </mxGeometry>
        </mxCell>
        <mxCell id="FqRL_8TPMi-P5fQyOlki-37" value="" style="endArrow=none;html=1;rounded=0;entryX=1;entryY=0.5;entryDx=0;entryDy=0;" edge="1" parent="1" target="FqRL_8TPMi-P5fQyOlki-31">
          <mxGeometry width="50" height="50" relative="1" as="geometry">
            <mxPoint x="-50" y="-30" as="sourcePoint" />
            <mxPoint x="-70" y="-110" as="targetPoint" />
          </mxGeometry>
        </mxCell>
        <mxCell id="FqRL_8TPMi-P5fQyOlki-38" value="" style="endArrow=none;html=1;rounded=0;entryX=1;entryY=1;entryDx=0;entryDy=0;" edge="1" parent="1" target="FqRL_8TPMi-P5fQyOlki-11">
          <mxGeometry width="50" height="50" relative="1" as="geometry">
            <mxPoint x="-50" y="-30" as="sourcePoint" />
            <mxPoint x="-70" y="-110" as="targetPoint" />
          </mxGeometry>
        </mxCell>
        <mxCell id="FqRL_8TPMi-P5fQyOlki-39" value="&lt;font style=&quot;font-size: 24px;&quot;&gt;address&lt;/font&gt;" style="ellipse;whiteSpace=wrap;html=1;" vertex="1" parent="1">
          <mxGeometry x="60" y="-195" width="120" height="80" as="geometry" />
        </mxCell>
        <mxCell id="FqRL_8TPMi-P5fQyOlki-40" value="&lt;font style=&quot;font-size: 24px;&quot;&gt;Number&lt;/font&gt;" style="ellipse;whiteSpace=wrap;html=1;" vertex="1" parent="1">
          <mxGeometry x="-330" y="-130" width="120" height="80" as="geometry" />
        </mxCell>
        <mxCell id="FqRL_8TPMi-P5fQyOlki-41" value="" style="endArrow=none;html=1;rounded=0;entryX=0.5;entryY=1;entryDx=0;entryDy=0;exitX=0;exitY=0;exitDx=0;exitDy=0;" edge="1" parent="1" source="FqRL_8TPMi-P5fQyOlki-3" target="FqRL_8TPMi-P5fQyOlki-15">
          <mxGeometry width="50" height="50" relative="1" as="geometry">
            <mxPoint x="490" y="210" as="sourcePoint" />
            <mxPoint x="540" y="160" as="targetPoint" />
          </mxGeometry>
        </mxCell>
        <mxCell id="FqRL_8TPMi-P5fQyOlki-42" value="" style="endArrow=none;html=1;rounded=0;entryX=1;entryY=0.5;entryDx=0;entryDy=0;exitX=0;exitY=0;exitDx=0;exitDy=0;" edge="1" parent="1" source="FqRL_8TPMi-P5fQyOlki-3" target="FqRL_8TPMi-P5fQyOlki-17">
          <mxGeometry width="50" height="50" relative="1" as="geometry">
            <mxPoint x="490" y="210" as="sourcePoint" />
            <mxPoint x="540" y="160" as="targetPoint" />
          </mxGeometry>
        </mxCell>
        <mxCell id="FqRL_8TPMi-P5fQyOlki-43" value="" style="endArrow=none;html=1;rounded=0;entryX=1;entryY=0.5;entryDx=0;entryDy=0;exitX=0;exitY=0;exitDx=0;exitDy=0;" edge="1" parent="1" source="FqRL_8TPMi-P5fQyOlki-3" target="FqRL_8TPMi-P5fQyOlki-16">
          <mxGeometry width="50" height="50" relative="1" as="geometry">
            <mxPoint x="490" y="210" as="sourcePoint" />
            <mxPoint x="540" y="160" as="targetPoint" />
          </mxGeometry>
        </mxCell>
        <mxCell id="FqRL_8TPMi-P5fQyOlki-44" value="" style="endArrow=none;html=1;rounded=0;entryX=1;entryY=0.5;entryDx=0;entryDy=0;exitX=0;exitY=0;exitDx=0;exitDy=0;" edge="1" parent="1" source="FqRL_8TPMi-P5fQyOlki-3" target="FqRL_8TPMi-P5fQyOlki-18">
          <mxGeometry width="50" height="50" relative="1" as="geometry">
            <mxPoint x="490" y="210" as="sourcePoint" />
            <mxPoint x="540" y="160" as="targetPoint" />
          </mxGeometry>
        </mxCell>
        <mxCell id="FqRL_8TPMi-P5fQyOlki-45" value="&lt;font style=&quot;font-size: 24px;&quot;&gt;address&lt;/font&gt;" style="ellipse;whiteSpace=wrap;html=1;" vertex="1" parent="1">
          <mxGeometry x="-485" y="380" width="120" height="80" as="geometry" />
        </mxCell>
        <mxCell id="FqRL_8TPMi-P5fQyOlki-46" value="" style="ellipse;whiteSpace=wrap;html=1;" vertex="1" parent="1">
          <mxGeometry x="-390" y="500" width="140" height="90" as="geometry" />
        </mxCell>
        <mxCell id="FqRL_8TPMi-P5fQyOlki-47" value="&lt;font style=&quot;font-size: 24px;&quot;&gt;position&lt;/font&gt;" style="ellipse;whiteSpace=wrap;html=1;" vertex="1" parent="1">
          <mxGeometry x="-380" y="505" width="120" height="80" as="geometry" />
        </mxCell>
        <mxCell id="FqRL_8TPMi-P5fQyOlki-48" value="" style="endArrow=none;html=1;rounded=0;entryX=1;entryY=0.5;entryDx=0;entryDy=0;" edge="1" parent="1" target="FqRL_8TPMi-P5fQyOlki-46">
          <mxGeometry width="50" height="50" relative="1" as="geometry">
            <mxPoint x="-80" y="300" as="sourcePoint" />
            <mxPoint x="-210" y="460" as="targetPoint" />
          </mxGeometry>
        </mxCell>
        <mxCell id="FqRL_8TPMi-P5fQyOlki-49" value="&lt;font style=&quot;font-size: 24px;&quot;&gt;Birth day&lt;/font&gt;" style="ellipse;whiteSpace=wrap;html=1;" vertex="1" parent="1">
          <mxGeometry x="-390" y="60" width="120" height="80" as="geometry" />
        </mxCell>
        <mxCell id="FqRL_8TPMi-P5fQyOlki-50" value="" style="endArrow=none;html=1;rounded=0;entryX=0.747;entryY=0.9;entryDx=0;entryDy=0;entryPerimeter=0;" edge="1" parent="1" target="FqRL_8TPMi-P5fQyOlki-49">
          <mxGeometry width="50" height="50" relative="1" as="geometry">
            <mxPoint x="-80" y="300" as="sourcePoint" />
            <mxPoint x="-130" y="240" as="targetPoint" />
          </mxGeometry>
        </mxCell>
        <mxCell id="FqRL_8TPMi-P5fQyOlki-51" value="&lt;font style=&quot;font-size: 24px;&quot;&gt;Birth year&lt;/font&gt;" style="ellipse;whiteSpace=wrap;html=1;" vertex="1" parent="1">
          <mxGeometry x="-500" y="150" width="120" height="80" as="geometry" />
        </mxCell>
        <mxCell id="FqRL_8TPMi-P5fQyOlki-52" value="&lt;font style=&quot;font-size: 24px;&quot;&gt;Birth month&lt;/font&gt;" style="ellipse;whiteSpace=wrap;html=1;" vertex="1" parent="1">
          <mxGeometry x="-375" y="150" width="120" height="80" as="geometry" />
        </mxCell>
        <mxCell id="FqRL_8TPMi-P5fQyOlki-53" value="" style="endArrow=none;html=1;rounded=0;entryX=1;entryY=0.5;entryDx=0;entryDy=0;exitX=0;exitY=0;exitDx=0;exitDy=0;" edge="1" parent="1" source="FqRL_8TPMi-P5fQyOlki-3" target="FqRL_8TPMi-P5fQyOlki-52">
          <mxGeometry width="50" height="50" relative="1" as="geometry">
            <mxPoint x="380" y="270" as="sourcePoint" />
            <mxPoint x="430" y="220" as="targetPoint" />
          </mxGeometry>
        </mxCell>
        <mxCell id="FqRL_8TPMi-P5fQyOlki-54" value="" style="endArrow=none;html=1;rounded=0;entryX=1;entryY=1;entryDx=0;entryDy=0;" edge="1" parent="1" target="FqRL_8TPMi-P5fQyOlki-51">
          <mxGeometry width="50" height="50" relative="1" as="geometry">
            <mxPoint x="-80" y="300" as="sourcePoint" />
            <mxPoint x="-210" y="220" as="targetPoint" />
          </mxGeometry>
        </mxCell>
        <mxCell id="FqRL_8TPMi-P5fQyOlki-55" value="&lt;span style=&quot;font-size: 18px;&quot;&gt;Qualefication&lt;/span&gt;" style="ellipse;whiteSpace=wrap;html=1;" vertex="1" parent="1">
          <mxGeometry x="-495" y="240" width="120" height="90" as="geometry" />
        </mxCell>
        <mxCell id="FqRL_8TPMi-P5fQyOlki-56" value="" style="endArrow=none;html=1;rounded=0;entryX=1;entryY=0;entryDx=0;entryDy=0;" edge="1" parent="1" target="FqRL_8TPMi-P5fQyOlki-55">
          <mxGeometry width="50" height="50" relative="1" as="geometry">
            <mxPoint x="-80" y="300" as="sourcePoint" />
            <mxPoint x="-280" y="240" as="targetPoint" />
          </mxGeometry>
        </mxCell>
        <mxCell id="FqRL_8TPMi-P5fQyOlki-57" value="&lt;font style=&quot;font-size: 18px;&quot;&gt;WORK&lt;/font&gt;" style="rhombus;whiteSpace=wrap;html=1;" vertex="1" parent="1">
          <mxGeometry x="-60" y="110" width="80" height="80" as="geometry" />
        </mxCell>
        <mxCell id="FqRL_8TPMi-P5fQyOlki-58" value="" style="endArrow=none;html=1;rounded=0;entryX=0.5;entryY=1;entryDx=0;entryDy=0;exitX=0.5;exitY=0;exitDx=0;exitDy=0;" edge="1" parent="1" source="FqRL_8TPMi-P5fQyOlki-57" target="FqRL_8TPMi-P5fQyOlki-1">
          <mxGeometry width="50" height="50" relative="1" as="geometry">
            <mxPoint x="260" y="350" as="sourcePoint" />
            <mxPoint x="310" y="300" as="targetPoint" />
          </mxGeometry>
        </mxCell>
        <mxCell id="FqRL_8TPMi-P5fQyOlki-116" value="&lt;font style=&quot;font-size: 48px;&quot;&gt;1&lt;/font&gt;" style="edgeLabel;html=1;align=center;verticalAlign=middle;resizable=0;points=[];" vertex="1" connectable="0" parent="FqRL_8TPMi-P5fQyOlki-58">
          <mxGeometry x="0.2429" y="-8" relative="1" as="geometry">
            <mxPoint x="17" y="-1" as="offset" />
          </mxGeometry>
        </mxCell>
        <mxCell id="FqRL_8TPMi-P5fQyOlki-59" value="" style="endArrow=none;html=1;rounded=0;entryX=0.5;entryY=1;entryDx=0;entryDy=0;exitX=0.5;exitY=0;exitDx=0;exitDy=0;" edge="1" parent="1" source="FqRL_8TPMi-P5fQyOlki-3" target="FqRL_8TPMi-P5fQyOlki-57">
          <mxGeometry width="50" height="50" relative="1" as="geometry">
            <mxPoint x="260" y="350" as="sourcePoint" />
            <mxPoint x="310" y="300" as="targetPoint" />
          </mxGeometry>
        </mxCell>
        <mxCell id="FqRL_8TPMi-P5fQyOlki-63" value="" style="endArrow=none;html=1;rounded=0;entryX=1;entryY=0.5;entryDx=0;entryDy=0;exitX=0;exitY=1;exitDx=0;exitDy=0;" edge="1" parent="1" source="FqRL_8TPMi-P5fQyOlki-5" target="FqRL_8TPMi-P5fQyOlki-22">
          <mxGeometry width="50" height="50" relative="1" as="geometry">
            <mxPoint x="260" y="520" as="sourcePoint" />
            <mxPoint x="310" y="470" as="targetPoint" />
          </mxGeometry>
        </mxCell>
        <mxCell id="FqRL_8TPMi-P5fQyOlki-64" value="" style="endArrow=none;html=1;rounded=0;exitX=1;exitY=0;exitDx=0;exitDy=0;" edge="1" parent="1" source="FqRL_8TPMi-P5fQyOlki-23">
          <mxGeometry width="50" height="50" relative="1" as="geometry">
            <mxPoint x="260" y="520" as="sourcePoint" />
            <mxPoint x="-90" y="660" as="targetPoint" />
          </mxGeometry>
        </mxCell>
        <mxCell id="FqRL_8TPMi-P5fQyOlki-65" value="" style="endArrow=none;html=1;rounded=0;exitX=0.5;exitY=0;exitDx=0;exitDy=0;entryX=0;entryY=1;entryDx=0;entryDy=0;" edge="1" parent="1" source="FqRL_8TPMi-P5fQyOlki-21" target="FqRL_8TPMi-P5fQyOlki-5">
          <mxGeometry width="50" height="50" relative="1" as="geometry">
            <mxPoint x="260" y="520" as="sourcePoint" />
            <mxPoint x="310" y="470" as="targetPoint" />
          </mxGeometry>
        </mxCell>
        <mxCell id="FqRL_8TPMi-P5fQyOlki-66" value="&lt;ul style=&quot;margin: 4px 0px 0px; padding-left: 27.432px; color: rgb(64, 64, 64); font-family: DeepSeek-CJK-patch, Inter, system-ui, -apple-system, BlinkMacSystemFont, &amp;quot;Segoe UI&amp;quot;, Roboto, &amp;quot;Noto Sans&amp;quot;, Ubuntu, Cantarell, &amp;quot;Helvetica Neue&amp;quot;, Oxygen, &amp;quot;Open Sans&amp;quot;, sans-serif; text-align: left; background-color: rgb(255, 255, 255);&quot;&gt;&lt;li style=&quot;margin-top: 4px;&quot;&gt;&lt;p style=&quot;margin-top: 0px; margin-right: 0px; margin-left: 0px; line-height: 28.575px; margin-bottom: 0px !important;&quot; class=&quot;ds-markdown-paragraph&quot;&gt;&lt;font style=&quot;font-size: 24px;&quot;&gt;Destination&lt;/font&gt;&lt;/p&gt;&lt;/li&gt;&lt;/ul&gt;" style="ellipse;whiteSpace=wrap;html=1;" vertex="1" parent="1">
          <mxGeometry x="560" y="-310" width="120" height="80" as="geometry" />
        </mxCell>
        <mxCell id="FqRL_8TPMi-P5fQyOlki-67" value="&lt;font style=&quot;font-size: 24px;&quot;&gt;Arravel&amp;nbsp;&lt;/font&gt;&lt;div&gt;&lt;font size=&quot;3&quot;&gt;datetime&lt;/font&gt;&lt;/div&gt;" style="ellipse;whiteSpace=wrap;html=1;" vertex="1" parent="1">
          <mxGeometry x="310" y="420" width="120" height="80" as="geometry" />
        </mxCell>
        <mxCell id="FqRL_8TPMi-P5fQyOlki-68" value="&lt;font style=&quot;font-size: 18px;&quot;&gt;Classification&amp;nbsp;&lt;/font&gt;" style="ellipse;whiteSpace=wrap;html=1;" vertex="1" parent="1">
          <mxGeometry x="670" y="-115" width="120" height="80" as="geometry" />
        </mxCell>
        <mxCell id="FqRL_8TPMi-P5fQyOlki-69" value="&lt;font style=&quot;font-size: 24px;&quot;&gt;destance&lt;/font&gt;&amp;nbsp;" style="ellipse;whiteSpace=wrap;html=1;" vertex="1" parent="1">
          <mxGeometry x="480" y="-230" width="120" height="80" as="geometry" />
        </mxCell>
        <mxCell id="FqRL_8TPMi-P5fQyOlki-70" value="" style="endArrow=none;html=1;rounded=0;exitX=0.5;exitY=0;exitDx=0;exitDy=0;" edge="1" parent="1" source="FqRL_8TPMi-P5fQyOlki-4" target="FqRL_8TPMi-P5fQyOlki-66">
          <mxGeometry width="50" height="50" relative="1" as="geometry">
            <mxPoint x="500" y="40" as="sourcePoint" />
            <mxPoint x="550" y="-10" as="targetPoint" />
          </mxGeometry>
        </mxCell>
        <mxCell id="FqRL_8TPMi-P5fQyOlki-71" value="" style="endArrow=none;html=1;rounded=0;exitX=0.5;exitY=0;exitDx=0;exitDy=0;" edge="1" parent="1" source="FqRL_8TPMi-P5fQyOlki-4" target="FqRL_8TPMi-P5fQyOlki-68">
          <mxGeometry width="50" height="50" relative="1" as="geometry">
            <mxPoint x="540" y="10" as="sourcePoint" />
            <mxPoint x="690" y="-100" as="targetPoint" />
          </mxGeometry>
        </mxCell>
        <mxCell id="FqRL_8TPMi-P5fQyOlki-72" value="" style="endArrow=none;html=1;rounded=0;exitX=0.5;exitY=0;exitDx=0;exitDy=0;entryX=0.5;entryY=1;entryDx=0;entryDy=0;" edge="1" parent="1" source="FqRL_8TPMi-P5fQyOlki-4" target="FqRL_8TPMi-P5fQyOlki-69">
          <mxGeometry width="50" height="50" relative="1" as="geometry">
            <mxPoint x="540" y="10" as="sourcePoint" />
            <mxPoint x="680" y="-100" as="targetPoint" />
          </mxGeometry>
        </mxCell>
        <mxCell id="FqRL_8TPMi-P5fQyOlki-73" value="&lt;span style=&quot;color: rgb(64, 64, 64); font-family: DeepSeek-CJK-patch, Inter, system-ui, -apple-system, BlinkMacSystemFont, &amp;quot;Segoe UI&amp;quot;, Roboto, &amp;quot;Noto Sans&amp;quot;, Ubuntu, Cantarell, &amp;quot;Helvetica Neue&amp;quot;, Oxygen, &amp;quot;Open Sans&amp;quot;, sans-serif; text-align: left; background-color: rgb(255, 255, 255);&quot;&gt;&lt;font style=&quot;font-size: 24px;&quot;&gt;domestic&lt;/font&gt;&lt;/span&gt;" style="ellipse;whiteSpace=wrap;html=1;" vertex="1" parent="1">
          <mxGeometry x="700" y="-250" width="120" height="80" as="geometry" />
        </mxCell>
        <mxCell id="FqRL_8TPMi-P5fQyOlki-74" value="&lt;span style=&quot;color: rgb(64, 64, 64); font-family: DeepSeek-CJK-patch, Inter, system-ui, -apple-system, BlinkMacSystemFont, &amp;quot;Segoe UI&amp;quot;, Roboto, &amp;quot;Noto Sans&amp;quot;, Ubuntu, Cantarell, &amp;quot;Helvetica Neue&amp;quot;, Oxygen, &amp;quot;Open Sans&amp;quot;, sans-serif; text-align: left; background-color: rgb(255, 255, 255);&quot;&gt;&lt;font style=&quot;font-size: 18px;&quot;&gt;international&lt;/font&gt;&lt;/span&gt;" style="ellipse;whiteSpace=wrap;html=1;" vertex="1" parent="1">
          <mxGeometry x="820" y="-210" width="120" height="80" as="geometry" />
        </mxCell>
        <mxCell id="FqRL_8TPMi-P5fQyOlki-75" value="" style="endArrow=none;html=1;rounded=0;entryX=0.5;entryY=1;entryDx=0;entryDy=0;exitX=0.651;exitY=0.021;exitDx=0;exitDy=0;exitPerimeter=0;" edge="1" parent="1" source="FqRL_8TPMi-P5fQyOlki-68" target="FqRL_8TPMi-P5fQyOlki-73">
          <mxGeometry width="50" height="50" relative="1" as="geometry">
            <mxPoint x="510" y="-30" as="sourcePoint" />
            <mxPoint x="560" y="-80" as="targetPoint" />
          </mxGeometry>
        </mxCell>
        <mxCell id="FqRL_8TPMi-P5fQyOlki-76" value="" style="endArrow=none;html=1;rounded=0;entryX=0;entryY=1;entryDx=0;entryDy=0;exitX=0.651;exitY=0.031;exitDx=0;exitDy=0;exitPerimeter=0;" edge="1" parent="1" source="FqRL_8TPMi-P5fQyOlki-68" target="FqRL_8TPMi-P5fQyOlki-74">
          <mxGeometry width="50" height="50" relative="1" as="geometry">
            <mxPoint x="750" y="-93" as="sourcePoint" />
            <mxPoint x="762" y="-150" as="targetPoint" />
          </mxGeometry>
        </mxCell>
        <mxCell id="FqRL_8TPMi-P5fQyOlki-77" value="&lt;font style=&quot;font-size: 24px;&quot;&gt;&lt;span style=&quot;color: rgb(64, 64, 64); font-family: DeepSeek-CJK-patch, Inter, system-ui, -apple-system, BlinkMacSystemFont, &amp;quot;Segoe UI&amp;quot;, Roboto, &amp;quot;Noto Sans&amp;quot;, Ubuntu, Cantarell, &amp;quot;Helvetica Neue&amp;quot;, Oxygen, &amp;quot;Open Sans&amp;quot;, sans-serif; font-style: normal; font-variant-ligatures: normal; font-variant-caps: normal; font-weight: 400; letter-spacing: normal; orphans: 2; text-align: left; text-indent: 0px; text-transform: none; widows: 2; word-spacing: 0px; -webkit-text-stroke-width: 0px; white-space: normal; background-color: rgb(255, 255, 255); text-decoration-thickness: initial; text-decoration-style: initial; text-decoration-color: initial; float: none; display: inline !important;&quot;&gt;have&lt;span&gt;&amp;nbsp;&lt;/span&gt;&lt;/span&gt;&lt;br&gt;&lt;/font&gt;" style="rhombus;whiteSpace=wrap;html=1;" vertex="1" parent="1">
          <mxGeometry x="200" y="280" width="80" height="80" as="geometry" />
        </mxCell>
        <mxCell id="FqRL_8TPMi-P5fQyOlki-78" value="" style="endArrow=none;html=1;rounded=0;entryX=0;entryY=0.5;entryDx=0;entryDy=0;exitX=1;exitY=0;exitDx=0;exitDy=0;" edge="1" parent="1" source="FqRL_8TPMi-P5fQyOlki-5" target="FqRL_8TPMi-P5fQyOlki-77">
          <mxGeometry width="50" height="50" relative="1" as="geometry">
            <mxPoint x="460" y="390" as="sourcePoint" />
            <mxPoint x="510" y="340" as="targetPoint" />
            <Array as="points">
              <mxPoint x="200" y="600" />
            </Array>
          </mxGeometry>
        </mxCell>
        <mxCell id="FqRL_8TPMi-P5fQyOlki-79" value="" style="endArrow=none;html=1;rounded=0;exitX=1;exitY=0.5;exitDx=0;exitDy=0;entryX=0;entryY=0.5;entryDx=0;entryDy=0;" edge="1" parent="1" source="FqRL_8TPMi-P5fQyOlki-77" target="FqRL_8TPMi-P5fQyOlki-4">
          <mxGeometry width="50" height="50" relative="1" as="geometry">
            <mxPoint x="460" y="390" as="sourcePoint" />
            <mxPoint x="400" y="330" as="targetPoint" />
            <Array as="points">
              <mxPoint x="280" />
            </Array>
          </mxGeometry>
        </mxCell>
        <mxCell id="FqRL_8TPMi-P5fQyOlki-80" value="" style="endArrow=none;html=1;rounded=0;entryX=0;entryY=1;entryDx=0;entryDy=0;exitX=1;exitY=0;exitDx=0;exitDy=0;" edge="1" parent="1" source="FqRL_8TPMi-P5fQyOlki-2" target="FqRL_8TPMi-P5fQyOlki-20">
          <mxGeometry width="50" height="50" relative="1" as="geometry">
            <mxPoint x="460" y="390" as="sourcePoint" />
            <mxPoint x="510" y="340" as="targetPoint" />
          </mxGeometry>
        </mxCell>
        <mxCell id="FqRL_8TPMi-P5fQyOlki-81" value="" style="endArrow=none;html=1;rounded=0;entryX=1;entryY=1;entryDx=0;entryDy=0;exitX=0;exitY=0;exitDx=0;exitDy=0;" edge="1" parent="1" source="FqRL_8TPMi-P5fQyOlki-2" target="FqRL_8TPMi-P5fQyOlki-19">
          <mxGeometry width="50" height="50" relative="1" as="geometry">
            <mxPoint x="460" y="380" as="sourcePoint" />
            <mxPoint x="360" y="280" as="targetPoint" />
          </mxGeometry>
        </mxCell>
        <mxCell id="FqRL_8TPMi-P5fQyOlki-82" value="" style="endArrow=none;html=1;rounded=0;entryX=0;entryY=0.5;entryDx=0;entryDy=0;exitX=1;exitY=0;exitDx=0;exitDy=0;" edge="1" parent="1" source="FqRL_8TPMi-P5fQyOlki-2" target="FqRL_8TPMi-P5fQyOlki-14">
          <mxGeometry width="50" height="50" relative="1" as="geometry">
            <mxPoint x="460" y="370" as="sourcePoint" />
            <mxPoint x="510" y="320" as="targetPoint" />
          </mxGeometry>
        </mxCell>
        <mxCell id="FqRL_8TPMi-P5fQyOlki-83" value="&lt;font style=&quot;font-size: 18px;&quot;&gt;Departure&lt;/font&gt;&lt;div&gt;&lt;font style=&quot;font-size: 18px;&quot;&gt;datetime&lt;/font&gt;&lt;/div&gt;" style="ellipse;whiteSpace=wrap;html=1;" vertex="1" parent="1">
          <mxGeometry x="740" y="400" width="120" height="80" as="geometry" />
        </mxCell>
        <mxCell id="FqRL_8TPMi-P5fQyOlki-84" value="" style="endArrow=none;html=1;rounded=0;entryX=1;entryY=0;entryDx=0;entryDy=0;" edge="1" parent="1" source="FqRL_8TPMi-P5fQyOlki-83" target="FqRL_8TPMi-P5fQyOlki-2">
          <mxGeometry width="50" height="50" relative="1" as="geometry">
            <mxPoint x="460" y="370" as="sourcePoint" />
            <mxPoint x="520" y="300" as="targetPoint" />
          </mxGeometry>
        </mxCell>
        <mxCell id="FqRL_8TPMi-P5fQyOlki-85" value="" style="endArrow=none;html=1;rounded=0;entryX=0;entryY=1;entryDx=0;entryDy=0;exitX=0.5;exitY=0;exitDx=0;exitDy=0;" edge="1" parent="1" source="FqRL_8TPMi-P5fQyOlki-67" target="FqRL_8TPMi-P5fQyOlki-2">
          <mxGeometry width="50" height="50" relative="1" as="geometry">
            <mxPoint x="460" y="370" as="sourcePoint" />
            <mxPoint x="510" y="320" as="targetPoint" />
          </mxGeometry>
        </mxCell>
        <mxCell id="FqRL_8TPMi-P5fQyOlki-89" value="&lt;span style=&quot;color: rgb(64, 64, 64); font-family: DeepSeek-CJK-patch, Inter, system-ui, -apple-system, BlinkMacSystemFont, &amp;quot;Segoe UI&amp;quot;, Roboto, &amp;quot;Noto Sans&amp;quot;, Ubuntu, Cantarell, &amp;quot;Helvetica Neue&amp;quot;, Oxygen, &amp;quot;Open Sans&amp;quot;, sans-serif; font-size: 16.002px; text-align: left; background-color: rgb(255, 255, 255);&quot;&gt;&amp;nbsp;&lt;/span&gt;&lt;span style=&quot;color: rgb(64, 64, 64); font-family: DeepSeek-CJK-patch, Inter, system-ui, -apple-system, BlinkMacSystemFont, &amp;quot;Segoe UI&amp;quot;, Roboto, &amp;quot;Noto Sans&amp;quot;, Ubuntu, Cantarell, &amp;quot;Helvetica Neue&amp;quot;, Oxygen, &amp;quot;Open Sans&amp;quot;, sans-serif; text-align: left; background-color: rgb(255, 255, 255);&quot;&gt;&lt;font style=&quot;font-size: 24px;&quot;&gt;assigned&lt;/font&gt;&lt;/span&gt;" style="rhombus;whiteSpace=wrap;html=1;" vertex="1" parent="1">
          <mxGeometry x="220" y="580" width="140" height="120" as="geometry" />
        </mxCell>
        <mxCell id="FqRL_8TPMi-P5fQyOlki-90" value="" style="endArrow=none;html=1;rounded=0;entryX=0;entryY=0.5;entryDx=0;entryDy=0;" edge="1" parent="1" target="FqRL_8TPMi-P5fQyOlki-89">
          <mxGeometry width="50" height="50" relative="1" as="geometry">
            <mxPoint x="30" y="640" as="sourcePoint" />
            <mxPoint x="510" y="540" as="targetPoint" />
          </mxGeometry>
        </mxCell>
        <mxCell id="FqRL_8TPMi-P5fQyOlki-91" value="" style="endArrow=none;html=1;rounded=0;exitX=1;exitY=0.5;exitDx=0;exitDy=0;entryX=0;entryY=0.5;entryDx=0;entryDy=0;" edge="1" parent="1" source="FqRL_8TPMi-P5fQyOlki-89" target="FqRL_8TPMi-P5fQyOlki-7">
          <mxGeometry width="50" height="50" relative="1" as="geometry">
            <mxPoint x="460" y="590" as="sourcePoint" />
            <mxPoint x="510" y="540" as="targetPoint" />
          </mxGeometry>
        </mxCell>
        <mxCell id="FqRL_8TPMi-P5fQyOlki-92" value="" style="endArrow=none;html=1;rounded=0;entryX=0.25;entryY=1;entryDx=0;entryDy=0;exitX=0.725;exitY=0.104;exitDx=0;exitDy=0;exitPerimeter=0;" edge="1" parent="1" source="FqRL_8TPMi-P5fQyOlki-25" target="FqRL_8TPMi-P5fQyOlki-7">
          <mxGeometry width="50" height="50" relative="1" as="geometry">
            <mxPoint x="460" y="590" as="sourcePoint" />
            <mxPoint x="510" y="540" as="targetPoint" />
          </mxGeometry>
        </mxCell>
        <mxCell id="FqRL_8TPMi-P5fQyOlki-93" value="" style="endArrow=none;html=1;rounded=0;exitX=0.5;exitY=0;exitDx=0;exitDy=0;" edge="1" parent="1" source="FqRL_8TPMi-P5fQyOlki-26">
          <mxGeometry width="50" height="50" relative="1" as="geometry">
            <mxPoint x="480" y="818" as="sourcePoint" />
            <mxPoint x="510" y="670" as="targetPoint" />
          </mxGeometry>
        </mxCell>
        <mxCell id="FqRL_8TPMi-P5fQyOlki-94" value="" style="endArrow=none;html=1;rounded=0;exitX=0;exitY=0.5;exitDx=0;exitDy=0;entryX=0.25;entryY=1;entryDx=0;entryDy=0;" edge="1" parent="1" source="FqRL_8TPMi-P5fQyOlki-24" target="FqRL_8TPMi-P5fQyOlki-7">
          <mxGeometry width="50" height="50" relative="1" as="geometry">
            <mxPoint x="650" y="770" as="sourcePoint" />
            <mxPoint x="540" y="690" as="targetPoint" />
          </mxGeometry>
        </mxCell>
        <mxCell id="FqRL_8TPMi-P5fQyOlki-95" value="&lt;div style=&quot;text-align: start;&quot;&gt;&lt;div&gt;&lt;font style=&quot;font-size: 24px;&quot;&gt;Hostess1&lt;/font&gt;&lt;/div&gt;&lt;div&gt;&lt;font style=&quot;font-size: 24px;&quot;&gt;_name&lt;/font&gt;&lt;/div&gt;&lt;div&gt;&lt;br&gt;&lt;/div&gt;&lt;/div&gt;" style="ellipse;whiteSpace=wrap;html=1;" vertex="1" parent="1">
          <mxGeometry x="700" y="640" width="150" height="90" as="geometry" />
        </mxCell>
        <mxCell id="FqRL_8TPMi-P5fQyOlki-96" value="&lt;div&gt;&lt;font style=&quot;font-size: 24px;&quot;&gt;Hostess2&lt;/font&gt;&lt;/div&gt;&lt;div&gt;&lt;font style=&quot;font-size: 24px;&quot;&gt;_name&lt;/font&gt;&lt;/div&gt;&lt;div&gt;&lt;br&gt;&lt;/div&gt;" style="ellipse;whiteSpace=wrap;html=1;" vertex="1" parent="1">
          <mxGeometry x="670" y="540" width="150" height="90" as="geometry" />
        </mxCell>
        <mxCell id="FqRL_8TPMi-P5fQyOlki-97" value="" style="endArrow=none;html=1;rounded=0;entryX=0;entryY=1;entryDx=0;entryDy=0;" edge="1" parent="1" target="FqRL_8TPMi-P5fQyOlki-96">
          <mxGeometry width="50" height="50" relative="1" as="geometry">
            <mxPoint x="600" y="640" as="sourcePoint" />
            <mxPoint x="510" y="680" as="targetPoint" />
          </mxGeometry>
        </mxCell>
        <mxCell id="FqRL_8TPMi-P5fQyOlki-98" value="" style="endArrow=none;html=1;rounded=0;entryX=0;entryY=0.5;entryDx=0;entryDy=0;exitX=1;exitY=0.5;exitDx=0;exitDy=0;" edge="1" parent="1" source="FqRL_8TPMi-P5fQyOlki-7" target="FqRL_8TPMi-P5fQyOlki-95">
          <mxGeometry width="50" height="50" relative="1" as="geometry">
            <mxPoint x="620" y="653" as="sourcePoint" />
            <mxPoint x="702" y="610" as="targetPoint" />
          </mxGeometry>
        </mxCell>
        <mxCell id="FqRL_8TPMi-P5fQyOlki-99" value="&lt;span style=&quot;color: rgb(64, 64, 64); font-family: DeepSeek-CJK-patch, Inter, system-ui, -apple-system, BlinkMacSystemFont, &amp;quot;Segoe UI&amp;quot;, Roboto, &amp;quot;Noto Sans&amp;quot;, Ubuntu, Cantarell, &amp;quot;Helvetica Neue&amp;quot;, Oxygen, &amp;quot;Open Sans&amp;quot;, sans-serif; text-align: left; background-color: rgb(255, 255, 255);&quot;&gt;&lt;font style=&quot;font-size: 24px;&quot;&gt;has&lt;/font&gt;&lt;/span&gt;" style="rhombus;whiteSpace=wrap;html=1;" vertex="1" parent="1">
          <mxGeometry x="-485" y="-40" width="80" height="80" as="geometry" />
        </mxCell>
        <mxCell id="FqRL_8TPMi-P5fQyOlki-100" value="&lt;font style=&quot;font-size: 18px;&quot;&gt;&lt;u&gt;Transaction ID&lt;/u&gt;&lt;/font&gt;" style="ellipse;whiteSpace=wrap;html=1;" vertex="1" parent="1">
          <mxGeometry x="-950" y="-130" width="120" height="80" as="geometry" />
        </mxCell>
        <mxCell id="FqRL_8TPMi-P5fQyOlki-101" value="" style="endArrow=none;html=1;rounded=0;entryX=1;entryY=0.5;entryDx=0;entryDy=0;exitX=0;exitY=0.5;exitDx=0;exitDy=0;" edge="1" parent="1" source="FqRL_8TPMi-P5fQyOlki-99" target="FqRL_8TPMi-P5fQyOlki-9">
          <mxGeometry width="50" height="50" relative="1" as="geometry">
            <mxPoint x="260" y="400" as="sourcePoint" />
            <mxPoint x="310" y="350" as="targetPoint" />
          </mxGeometry>
        </mxCell>
        <mxCell id="FqRL_8TPMi-P5fQyOlki-102" value="" style="endArrow=none;html=1;rounded=0;entryX=0;entryY=0.5;entryDx=0;entryDy=0;exitX=1;exitY=0.5;exitDx=0;exitDy=0;" edge="1" parent="1" source="FqRL_8TPMi-P5fQyOlki-99" target="FqRL_8TPMi-P5fQyOlki-1">
          <mxGeometry width="50" height="50" relative="1" as="geometry">
            <mxPoint x="260" y="400" as="sourcePoint" />
            <mxPoint x="310" y="350" as="targetPoint" />
          </mxGeometry>
        </mxCell>
        <mxCell id="FqRL_8TPMi-P5fQyOlki-103" value="" style="endArrow=none;html=1;rounded=0;entryX=1;entryY=0.5;entryDx=0;entryDy=0;exitX=0;exitY=0;exitDx=0;exitDy=0;" edge="1" parent="1" source="FqRL_8TPMi-P5fQyOlki-9" target="FqRL_8TPMi-P5fQyOlki-100">
          <mxGeometry width="50" height="50" relative="1" as="geometry">
            <mxPoint x="150" y="320" as="sourcePoint" />
            <mxPoint x="200" y="270" as="targetPoint" />
          </mxGeometry>
        </mxCell>
        <mxCell id="FqRL_8TPMi-P5fQyOlki-104" value="&lt;font style=&quot;font-size: 24px;&quot;&gt;Date&lt;/font&gt;" style="ellipse;whiteSpace=wrap;html=1;" vertex="1" parent="1">
          <mxGeometry x="-1000" y="-40" width="120" height="80" as="geometry" />
        </mxCell>
        <mxCell id="FqRL_8TPMi-P5fQyOlki-105" value="&lt;font style=&quot;font-size: 24px;&quot;&gt;Amount&lt;/font&gt;" style="ellipse;whiteSpace=wrap;html=1;" vertex="1" parent="1">
          <mxGeometry x="-1020" y="60" width="120" height="80" as="geometry" />
        </mxCell>
        <mxCell id="FqRL_8TPMi-P5fQyOlki-106" value="&lt;font style=&quot;font-size: 24px;&quot;&gt;Discretion&lt;/font&gt;&amp;nbsp;" style="ellipse;whiteSpace=wrap;html=1;" vertex="1" parent="1">
          <mxGeometry x="-900" y="130" width="120" height="80" as="geometry" />
        </mxCell>
        <mxCell id="FqRL_8TPMi-P5fQyOlki-107" value="" style="endArrow=none;html=1;rounded=0;entryX=0.5;entryY=0;entryDx=0;entryDy=0;" edge="1" parent="1" target="FqRL_8TPMi-P5fQyOlki-106">
          <mxGeometry width="50" height="50" relative="1" as="geometry">
            <mxPoint x="-790" as="sourcePoint" />
            <mxPoint x="200" y="260" as="targetPoint" />
          </mxGeometry>
        </mxCell>
        <mxCell id="FqRL_8TPMi-P5fQyOlki-108" value="" style="endArrow=none;html=1;rounded=0;exitX=1;exitY=0.5;exitDx=0;exitDy=0;entryX=0;entryY=0.5;entryDx=0;entryDy=0;" edge="1" parent="1" source="FqRL_8TPMi-P5fQyOlki-105" target="FqRL_8TPMi-P5fQyOlki-9">
          <mxGeometry width="50" height="50" relative="1" as="geometry">
            <mxPoint x="150" y="310" as="sourcePoint" />
            <mxPoint x="-790" y="10" as="targetPoint" />
          </mxGeometry>
        </mxCell>
        <mxCell id="FqRL_8TPMi-P5fQyOlki-109" value="" style="endArrow=none;html=1;rounded=0;entryX=1;entryY=0.5;entryDx=0;entryDy=0;exitX=0;exitY=0.5;exitDx=0;exitDy=0;" edge="1" parent="1" source="FqRL_8TPMi-P5fQyOlki-9" target="FqRL_8TPMi-P5fQyOlki-104">
          <mxGeometry width="50" height="50" relative="1" as="geometry">
            <mxPoint x="150" y="300" as="sourcePoint" />
            <mxPoint x="200" y="250" as="targetPoint" />
          </mxGeometry>
        </mxCell>
        <mxCell id="FqRL_8TPMi-P5fQyOlki-110" value="&lt;span style=&quot;color: rgb(64, 64, 64); font-family: DeepSeek-CJK-patch, Inter, system-ui, -apple-system, BlinkMacSystemFont, &amp;quot;Segoe UI&amp;quot;, Roboto, &amp;quot;Noto Sans&amp;quot;, Ubuntu, Cantarell, &amp;quot;Helvetica Neue&amp;quot;, Oxygen, &amp;quot;Open Sans&amp;quot;, sans-serif; text-align: left; background-color: rgb(255, 255, 255);&quot;&gt;&lt;font style=&quot;font-size: 24px;&quot;&gt;Type&lt;/font&gt;&lt;/span&gt;" style="ellipse;whiteSpace=wrap;html=1;" vertex="1" parent="1">
          <mxGeometry x="-770" y="-150" width="120" height="80" as="geometry" />
        </mxCell>
        <mxCell id="FqRL_8TPMi-P5fQyOlki-111" value="" style="endArrow=none;html=1;rounded=0;entryX=0.5;entryY=1;entryDx=0;entryDy=0;exitX=0.5;exitY=0;exitDx=0;exitDy=0;" edge="1" parent="1" source="FqRL_8TPMi-P5fQyOlki-9" target="FqRL_8TPMi-P5fQyOlki-110">
          <mxGeometry width="50" height="50" relative="1" as="geometry">
            <mxPoint x="150" y="300" as="sourcePoint" />
            <mxPoint x="200" y="250" as="targetPoint" />
          </mxGeometry>
        </mxCell>
        <mxCell id="FqRL_8TPMi-P5fQyOlki-112" value="&lt;span style=&quot;color: rgb(64, 64, 64); font-family: DeepSeek-CJK-patch, Inter, system-ui, -apple-system, BlinkMacSystemFont, &amp;quot;Segoe UI&amp;quot;, Roboto, &amp;quot;Noto Sans&amp;quot;, Ubuntu, Cantarell, &amp;quot;Helvetica Neue&amp;quot;, Oxygen, &amp;quot;Open Sans&amp;quot;, sans-serif; text-align: left; background-color: rgb(255, 255, 255);&quot;&gt;&lt;font style=&quot;font-size: 36px;&quot;&gt;sell&lt;/font&gt;&lt;/span&gt;" style="ellipse;whiteSpace=wrap;html=1;" vertex="1" parent="1">
          <mxGeometry x="-680" y="-280" width="120" height="80" as="geometry" />
        </mxCell>
        <mxCell id="FqRL_8TPMi-P5fQyOlki-113" value="&lt;span style=&quot;color: rgb(64, 64, 64); font-family: DeepSeek-CJK-patch, Inter, system-ui, -apple-system, BlinkMacSystemFont, &amp;quot;Segoe UI&amp;quot;, Roboto, &amp;quot;Noto Sans&amp;quot;, Ubuntu, Cantarell, &amp;quot;Helvetica Neue&amp;quot;, Oxygen, &amp;quot;Open Sans&amp;quot;, sans-serif; text-align: left; background-color: rgb(255, 255, 255);&quot;&gt;&lt;font style=&quot;font-size: 36px;&quot;&gt;buy&lt;/font&gt;&lt;/span&gt;" style="ellipse;whiteSpace=wrap;html=1;" vertex="1" parent="1">
          <mxGeometry x="-840" y="-280" width="120" height="80" as="geometry" />
        </mxCell>
        <mxCell id="FqRL_8TPMi-P5fQyOlki-114" value="" style="endArrow=none;html=1;rounded=0;entryX=0.5;entryY=1;entryDx=0;entryDy=0;exitX=0.5;exitY=0;exitDx=0;exitDy=0;" edge="1" parent="1" source="FqRL_8TPMi-P5fQyOlki-110" target="FqRL_8TPMi-P5fQyOlki-113">
          <mxGeometry width="50" height="50" relative="1" as="geometry">
            <mxPoint x="150" as="sourcePoint" />
            <mxPoint x="200" y="-50" as="targetPoint" />
          </mxGeometry>
        </mxCell>
        <mxCell id="FqRL_8TPMi-P5fQyOlki-115" value="" style="endArrow=none;html=1;rounded=0;entryX=0.5;entryY=1;entryDx=0;entryDy=0;exitX=0.5;exitY=0;exitDx=0;exitDy=0;" edge="1" parent="1" source="FqRL_8TPMi-P5fQyOlki-110" target="FqRL_8TPMi-P5fQyOlki-112">
          <mxGeometry width="50" height="50" relative="1" as="geometry">
            <mxPoint x="-550" y="-110" as="sourcePoint" />
            <mxPoint x="-620" y="-160" as="targetPoint" />
          </mxGeometry>
        </mxCell>
        <mxCell id="FqRL_8TPMi-P5fQyOlki-117" value="&lt;font style=&quot;font-size: 36px;&quot;&gt;N&lt;/font&gt;" style="text;html=1;align=center;verticalAlign=middle;resizable=0;points=[];autosize=1;strokeColor=none;fillColor=none;" vertex="1" parent="1">
          <mxGeometry x="-20" y="250" width="50" height="60" as="geometry" />
        </mxCell>
        <mxCell id="FqRL_8TPMi-P5fQyOlki-118" value="&lt;span style=&quot;color: rgb(64, 64, 64); font-family: DeepSeek-CJK-patch, Inter, system-ui, -apple-system, BlinkMacSystemFont, &amp;quot;Segoe UI&amp;quot;, Roboto, &amp;quot;Noto Sans&amp;quot;, Ubuntu, Cantarell, &amp;quot;Helvetica Neue&amp;quot;, Oxygen, &amp;quot;Open Sans&amp;quot;, sans-serif; text-align: left; background-color: rgb(255, 255, 255);&quot;&gt;&lt;font style=&quot;font-size: 24px;&quot;&gt;owns&lt;/font&gt;&lt;/span&gt;" style="rhombus;whiteSpace=wrap;html=1;" vertex="1" parent="1">
          <mxGeometry x="100" y="120" width="80" height="80" as="geometry" />
        </mxCell>
        <mxCell id="FqRL_8TPMi-P5fQyOlki-119" value="" style="endArrow=none;html=1;rounded=0;entryX=1;entryY=0.25;entryDx=0;entryDy=0;exitX=0.5;exitY=0;exitDx=0;exitDy=0;" edge="1" parent="1" source="FqRL_8TPMi-P5fQyOlki-118" target="FqRL_8TPMi-P5fQyOlki-1">
          <mxGeometry width="50" height="50" relative="1" as="geometry">
            <mxPoint x="330" y="500" as="sourcePoint" />
            <mxPoint x="380" y="450" as="targetPoint" />
            <Array as="points">
              <mxPoint x="140" y="-15" />
            </Array>
          </mxGeometry>
        </mxCell>
        <mxCell id="FqRL_8TPMi-P5fQyOlki-120" value="" style="endArrow=none;html=1;rounded=0;exitX=0.75;exitY=0;exitDx=0;exitDy=0;entryX=0.5;entryY=1;entryDx=0;entryDy=0;" edge="1" parent="1" source="FqRL_8TPMi-P5fQyOlki-5" target="FqRL_8TPMi-P5fQyOlki-118">
          <mxGeometry width="50" height="50" relative="1" as="geometry">
            <mxPoint x="330" y="500" as="sourcePoint" />
            <mxPoint x="380" y="450" as="targetPoint" />
            <Array as="points">
              <mxPoint y="480" />
              <mxPoint x="140" y="480" />
            </Array>
          </mxGeometry>
        </mxCell>
        <mxCell id="FqRL_8TPMi-P5fQyOlki-121" value="&lt;font style=&quot;font-size: 48px;&quot;&gt;1&lt;/font&gt;" style="edgeLabel;html=1;align=center;verticalAlign=middle;resizable=0;points=[];" vertex="1" connectable="0" parent="1">
          <mxGeometry y="60" as="geometry">
            <mxPoint x="74" y="-54" as="offset" />
          </mxGeometry>
        </mxCell>
        <mxCell id="FqRL_8TPMi-P5fQyOlki-122" value="&lt;font style=&quot;font-size: 36px;&quot;&gt;N&lt;/font&gt;" style="text;html=1;align=center;verticalAlign=middle;resizable=0;points=[];autosize=1;strokeColor=none;fillColor=none;" vertex="1" parent="1">
          <mxGeometry x="-60" y="550" width="50" height="60" as="geometry" />
        </mxCell>
        <mxCell id="FqRL_8TPMi-P5fQyOlki-124" value="&lt;font style=&quot;font-size: 48px;&quot;&gt;1&lt;/font&gt;" style="edgeLabel;html=1;align=center;verticalAlign=middle;resizable=0;points=[];" vertex="1" connectable="0" parent="1">
          <mxGeometry y="60" as="geometry">
            <mxPoint x="49" y="601" as="offset" />
          </mxGeometry>
        </mxCell>
        <mxCell id="FqRL_8TPMi-P5fQyOlki-125" value="&lt;font style=&quot;font-size: 48px;&quot;&gt;1&lt;/font&gt;" style="edgeLabel;html=1;align=center;verticalAlign=middle;resizable=0;points=[];" vertex="1" connectable="0" parent="1">
          <mxGeometry x="400" y="80" as="geometry">
            <mxPoint x="49" y="601" as="offset" />
          </mxGeometry>
        </mxCell>
        <mxCell id="FqRL_8TPMi-P5fQyOlki-126" value="&lt;font style=&quot;font-size: 36px;&quot;&gt;N&lt;/font&gt;" style="text;html=1;align=center;verticalAlign=middle;resizable=0;points=[];autosize=1;strokeColor=none;fillColor=none;" vertex="1" parent="1">
          <mxGeometry x="50" y="550" width="50" height="60" as="geometry" />
        </mxCell>
        <mxCell id="FqRL_8TPMi-P5fQyOlki-127" value="&lt;span style=&quot;font-size: 36px;&quot;&gt;M&lt;/span&gt;" style="text;html=1;align=center;verticalAlign=middle;resizable=0;points=[];autosize=1;strokeColor=none;fillColor=none;" vertex="1" parent="1">
          <mxGeometry x="390" width="50" height="60" as="geometry" />
        </mxCell>
        <mxCell id="FqRL_8TPMi-P5fQyOlki-128" value="&lt;font style=&quot;font-size: 48px;&quot;&gt;1&lt;/font&gt;" style="edgeLabel;html=1;align=center;verticalAlign=middle;resizable=0;points=[];" vertex="1" connectable="0" parent="1">
          <mxGeometry y="60" as="geometry">
            <mxPoint x="-125" y="-74" as="offset" />
          </mxGeometry>
        </mxCell>
        <mxCell id="FqRL_8TPMi-P5fQyOlki-129" value="&lt;font style=&quot;font-size: 36px;&quot;&gt;N&lt;/font&gt;" style="text;html=1;align=center;verticalAlign=middle;resizable=0;points=[];autosize=1;strokeColor=none;fillColor=none;" vertex="1" parent="1">
          <mxGeometry x="-650" width="50" height="60" as="geometry" />
        </mxCell>
        <mxCell id="FqRL_8TPMi-P5fQyOlki-130" value="THROUGHT" style="rhombus;whiteSpace=wrap;html=1;" vertex="1" parent="1">
          <mxGeometry x="480" y="120" width="80" height="80" as="geometry" />
        </mxCell>
        <mxCell id="FqRL_8TPMi-P5fQyOlki-131" value="" style="endArrow=none;html=1;rounded=0;entryX=0.5;entryY=1;entryDx=0;entryDy=0;exitX=0.5;exitY=0;exitDx=0;exitDy=0;" edge="1" parent="1" source="FqRL_8TPMi-P5fQyOlki-130" target="FqRL_8TPMi-P5fQyOlki-4">
          <mxGeometry width="50" height="50" relative="1" as="geometry">
            <mxPoint x="340" y="490" as="sourcePoint" />
            <mxPoint x="390" y="440" as="targetPoint" />
          </mxGeometry>
        </mxCell>
        <mxCell id="FqRL_8TPMi-P5fQyOlki-132" value="" style="endArrow=none;html=1;rounded=0;exitX=0.5;exitY=1;exitDx=0;exitDy=0;" edge="1" parent="1" source="FqRL_8TPMi-P5fQyOlki-130">
          <mxGeometry width="50" height="50" relative="1" as="geometry">
            <mxPoint x="510" y="160" as="sourcePoint" />
            <mxPoint x="520" y="290" as="targetPoint" />
          </mxGeometry>
        </mxCell>
        <mxCell id="FqRL_8TPMi-P5fQyOlki-133" value="&lt;font style=&quot;font-size: 36px;&quot;&gt;N&lt;/font&gt;" style="text;html=1;align=center;verticalAlign=middle;resizable=0;points=[];autosize=1;strokeColor=none;fillColor=none;" vertex="1" parent="1">
          <mxGeometry x="520" y="35" width="50" height="60" as="geometry" />
        </mxCell>
        <mxCell id="FqRL_8TPMi-P5fQyOlki-134" value="&lt;font style=&quot;font-size: 36px;&quot;&gt;N&lt;/font&gt;" style="text;html=1;align=center;verticalAlign=middle;resizable=0;points=[];autosize=1;strokeColor=none;fillColor=none;" vertex="1" parent="1">
          <mxGeometry x="520" y="250" width="50" height="60" as="geometry" />
        </mxCell>
      </root>
    </mxGraphModel>
  </diagram>
</mxfile>
